# Blender 4.3.2
# www.blender.org
mtllib cube_z.mtl
o Cube
v -1.000000 -1.000000 -2.473710
v -1.000000 1.000000 -2.473710
v -1.000000 -1.000000 -4.473710
v -1.000000 1.000000 -4.473710
v 1.000000 -1.000000 -2.473710
v 1.000000 -1.000000 -4.473710
v 1.000000 1.000000 -4.473710
v 1.000000 -0.027895 -2.473710
v 1.000000 1.000000 -3.501605
v -0.027894 1.000000 -2.473710
vn -0.0000 1.0000 -0.0000
vn 1.0000 -0.0000 -0.0000
vn -0.0000 -1.0000 -0.0000
vn -1.0000 -0.0000 -0.0000
vn -0.0000 -0.0000 -1.0000
vn 0.5774 0.5774 0.5774
vn -0.0000 -0.0000 1.0000
vt 0.625000 0.621513
vt 0.875000 0.500000
vt 0.753487 0.750000
vt 0.496513 0.750000
vt 0.375000 0.750000
vt 0.375000 0.500000
vt 0.125000 0.500000
vt 0.625000 0.500000
vt 0.625000 0.250000
vt 0.375000 0.000000
vt 0.625000 0.000000
vt 0.375000 0.250000
vt 0.625000 0.878487
vt 0.625000 1.000000
vt 0.375000 1.000000
vt 0.875000 0.750000
vt 0.125000 0.750000
s 1
f 9/1/1 4/2/1 10/3/1
f 8/4/2 5/5/2 6/6/2
f 5/5/3 3/7/3 6/6/3
f 7/8/1 4/2/1 9/1/1
f 4/9/4 1/10/4 2/11/4
f 7/8/5 3/12/5 4/9/5
f 8/4/6 9/1/6 10/3/6
f 10/13/7 2/14/7 1/15/7
f 4/2/1 2/16/1 10/3/1
f 6/6/2 7/8/2 9/1/2
f 9/1/2 8/4/2 6/6/2
f 5/5/3 1/17/3 3/7/3
f 4/9/4 3/12/4 1/10/4
f 7/8/5 6/6/5 3/12/5
f 5/5/7 8/4/7 1/15/7
f 8/4/7 10/13/7 1/15/7
